<svg width="500" height="500" viewBox="0 0 500 500" fill="none" xmlns="http://www.w3.org/2000/svg">
  <circle cx="250" cy="250" r="230" stroke="url(#grad_circle)" stroke-width="12" stroke-linecap="round" stroke-dasharray="10 5"/>
  <circle cx="250" cy="250" r="210" stroke="#1E293B" stroke-width="2"/>

  <path d="M250 120C190 120 140 160 140 220C140 250 160 275 180 290C180 310 190 340 210 350C220 355 240 340 250 330C260 340 280 355 290 350C310 340 320 310 320 290C340 275 360 250 360 220C360 160 310 120 250 120Z" fill="#0F172A" stroke="#38BDF8" stroke-width="4"/>

  <path d="M180 200H210M170 230H200M185 260H215" stroke="#38BDF8" stroke-width="3" stroke-linecap="round"/>
  <circle cx="215" cy="200" r="3" fill="#38BDF8"/>
  <circle cx="205" cy="230" r="3" fill="#38BDF8"/>

  <path d="M320 200H290M330 230H300M315 260H285" stroke="#FBBF24" stroke-width="3" stroke-linecap="round"/>
  <circle cx="285" cy="200" r="3" fill="#FBBF24"/>
  <circle cx="295" cy="230" r="3" fill="#FBBF24"/>

  <path d="M265 150L210 260H255L235 350L290 240H245L265 150Z" fill="#FBBF24" filter="url(#glow)">
    <animate attributeName="opacity" values="1;0.7;1" dur="2s" repeatCount="indefinite" />
  </path>

  <path d="M100 250L120 250L130 220L150 280L160 250L180 250" stroke="#38BDF8" stroke-width="4" stroke-linecap="round" stroke-linejoin="round"/>
  <path d="M320 250L340 250L350 220L370 280L380 250L400 250" stroke="#FBBF24" stroke-width="4" stroke-linecap="round" stroke-linejoin="round"/>

  <defs>
    <linearGradient id="grad_circle" x1="0" y1="0" x2="500" y2="500" gradientUnits="userSpaceOnUse">
      <stop stop-color="#38BDF8"/>
      <stop offset="1" stop-color="#FBBF24"/>
    </linearGradient>
    <filter id="glow" x="-20%" y="-20%" width="140%" height="140%">
      <feGaussianBlur stdDeviation="5" result="blur" />
      <feComposite in="SourceGraphic" in2="blur" operator="over" />
    </filter>
  </defs>
</svg>